#N canvas 50 28 1804 930 12;
#X obj 20 173 adc~;
#N canvas 49 319 881 540 distortion 0;
#X obj 162 360 phasor~;
#X obj 103 385 samphold~;
#X floatatom 269 100 10 0 0 0 - - -;
#X obj 104 360 inlet~;
#X obj 103 411 outlet~;
#X obj 269 75 r distortion;
#X obj 105 75 r distortion-toggle;
#X obj 105 127 + 1;
#X obj 105 101 f;
#X floatatom 105 179 5 0 0 0 - - -;
#X obj 105 153 mod 2;
#X floatatom 105 230 5 0 0 0 - - -;
#X obj 105 255 moses 1;
#X obj 105 281 bng 15 250 50 0 empty empty empty 17 7 0 10 -262144
-1 -1;
#X obj 151 281 bng 15 250 50 0 empty empty empty 17 7 0 10 -262144
-1 -1;
#X obj 162 331 f;
#X obj 269 125 t b f;
#X obj 105 204 == 1;
#X obj 195 331 f 1e+006;
#X connect 0 0 1 1;
#X connect 1 0 4 0;
#X connect 2 0 16 0;
#X connect 3 0 1 0;
#X connect 5 0 2 0;
#X connect 6 0 8 0;
#X connect 7 0 10 0;
#X connect 8 0 7 0;
#X connect 9 0 17 0;
#X connect 10 0 9 0;
#X connect 10 0 8 1;
#X connect 11 0 12 0;
#X connect 12 0 13 0;
#X connect 12 1 14 0;
#X connect 13 0 15 0;
#X connect 14 0 18 0;
#X connect 15 0 0 0;
#X connect 16 0 9 0;
#X connect 16 1 15 1;
#X connect 17 0 11 0;
#X connect 18 0 0 0;
#X restore 20 200 pd distortion;
#X obj 343 105 vsl 15 128 2500 1e+006 1 0 empty empty empty 0 -9 0
10 -262144 -1 -1 12700 1;
#X floatatom 343 241 10 2500 1e+006 0 - - -;
#X obj 343 266 s distortion;
#N canvas 671 248 792 620 pitch-shift 0;
#X obj 333 57 inlet~;
#X obj 394 418 *~;
#X obj 517 355 line~;
#X floatatom 517 191 0 0 0 0 - - -;
#X obj 517 329 pack 0 200;
#X obj 331 203 exp;
#X floatatom 331 229 6 0 0 0 - - -;
#X obj 331 319 /;
#X obj 458 249 * 0.001;
#X obj 646 425 line~;
#X obj 646 400 pack 0 200;
#X floatatom 646 349 0 0 0 0 - - -;
#X obj 394 444 +~;
#X obj 331 470 cos~;
#X obj 331 497 *~;
#X obj 331 526 +~;
#X obj 418 377 wrap~;
#X obj 583 420 *~;
#X obj 583 453 +~;
#X obj 520 480 cos~;
#X obj 520 507 *~;
#X obj 458 276 t b f;
#X floatatom 331 345 6 0 0 0 - - -;
#X obj 418 350 +~ 0.5;
#X obj 331 418 -~ 0.5;
#X obj 331 444 *~ 0.5;
#X obj 520 419 -~ 0.5;
#X obj 520 452 *~ 0.5;
#X obj 331 256 - 1;
#X obj 331 177 * 0.05776;
#X obj 331 282 * -1;
#X obj 331 376 phasor~;
#X obj 517 218 max 1;
#X obj 583 482 delread4~ pshift;
#X obj 393 470 delread4~ pshift;
#X obj 517 138 loadbang;
#X obj 646 376 max 1;
#X obj 333 84 delwrite~ pshift 1000;
#X msg 517 164 75;
#X msg 646 323 1;
#X obj 331 552 outlet~;
#X floatatom 228 82 10 0 0 0 - - -;
#X obj 64 109 + 1;
#X obj 64 83 f;
#X floatatom 64 161 5 0 0 0 - - -;
#X obj 64 135 mod 2;
#X floatatom 64 212 5 0 0 0 - - -;
#X obj 64 237 moses 1;
#X obj 64 263 bng 15 250 50 0 empty empty empty 17 7 0 10 -262144 -1
-1;
#X obj 110 263 bng 15 250 50 0 empty empty empty 17 7 0 10 -262144
-1 -1;
#X obj 121 313 f;
#X obj 228 107 t b f;
#X obj 228 57 r pitchshift;
#X text 12 8 adapted from G09.pitchshift.pd;
#X obj 121 341 s pitchval;
#X obj 331 150 r pitchval;
#X obj 64 57 r pitch-toggle;
#X obj 64 186 == 1;
#X obj 154 313 f 0;
#X connect 0 0 37 0;
#X connect 1 0 12 0;
#X connect 2 0 1 1;
#X connect 2 0 17 1;
#X connect 3 0 32 0;
#X connect 4 0 2 0;
#X connect 5 0 6 0;
#X connect 6 0 28 0;
#X connect 7 0 22 0;
#X connect 8 0 21 0;
#X connect 9 0 12 1;
#X connect 9 0 18 1;
#X connect 10 0 9 0;
#X connect 11 0 36 0;
#X connect 12 0 34 0;
#X connect 13 0 14 0;
#X connect 14 0 15 0;
#X connect 15 0 40 0;
#X connect 16 0 26 0;
#X connect 16 0 17 0;
#X connect 17 0 18 0;
#X connect 18 0 33 0;
#X connect 19 0 20 0;
#X connect 20 0 15 1;
#X connect 21 0 7 0;
#X connect 21 1 7 1;
#X connect 22 0 31 0;
#X connect 23 0 16 0;
#X connect 24 0 25 0;
#X connect 25 0 13 0;
#X connect 26 0 27 0;
#X connect 27 0 19 0;
#X connect 28 0 30 0;
#X connect 29 0 5 0;
#X connect 30 0 7 0;
#X connect 31 0 1 0;
#X connect 31 0 24 0;
#X connect 31 0 23 0;
#X connect 32 0 8 0;
#X connect 32 0 4 0;
#X connect 33 0 20 1;
#X connect 34 0 14 1;
#X connect 35 0 38 0;
#X connect 35 0 39 0;
#X connect 36 0 10 0;
#X connect 38 0 3 0;
#X connect 39 0 11 0;
#X connect 41 0 51 0;
#X connect 42 0 45 0;
#X connect 43 0 42 0;
#X connect 44 0 57 0;
#X connect 45 0 44 0;
#X connect 45 0 43 1;
#X connect 46 0 47 0;
#X connect 47 0 48 0;
#X connect 47 1 49 0;
#X connect 48 0 50 0;
#X connect 49 0 58 0;
#X connect 50 0 54 0;
#X connect 51 0 44 0;
#X connect 51 1 50 1;
#X connect 52 0 41 0;
#X connect 55 0 29 0;
#X connect 56 0 43 0;
#X connect 57 0 46 0;
#X connect 58 0 54 0;
#X restore 20 227 pd pitch-shift;
#X obj 572 105 vsl 15 128 -12 12 0 0 empty empty empty 0 -9 0 10 -262144
-1 -1 6350 1;
#X floatatom 572 241 10 -12 12 0 - - -;
#X obj 572 266 s pitchshift;
#X text 360 154 default: 1e+006;
#X text 360 175 lower values = more distorted;
#X obj 343 51 loadbang;
#X obj 572 50 loadbang;
#X msg 572 76 0;
#X text 590 154 default: 0;
#X text 590 175 shifts by half-step;
#X msg 343 77 1e+006;
#N canvas 69 235 591 521 low-pass 0;
#X obj 192 337 inlet~;
#X obj 246 337 mtof;
#X obj 221 386 lop~;
#X floatatom 246 362 10 0 0 0 - - -;
#X obj 297 44 r lop-cutoff;
#X floatatom 297 70 5 0 0 0 - - -;
#X obj 221 412 outlet~;
#X obj 156 98 + 1;
#X obj 156 72 f;
#X floatatom 156 150 5 0 0 0 - - -;
#X obj 156 124 mod 2;
#X floatatom 156 201 5 0 0 0 - - -;
#X obj 156 226 moses 1;
#X obj 156 252 bng 15 250 50 0 empty empty empty 17 7 0 10 -262144
-1 -1;
#X obj 202 252 bng 15 250 50 0 empty empty empty 17 7 0 10 -262144
-1 -1;
#X obj 213 302 f;
#X obj 156 46 r lop-toggle;
#X obj 297 95 t b f;
#X obj 246 302 f 127;
#X obj 156 175 == 1;
#X connect 0 0 2 0;
#X connect 1 0 3 0;
#X connect 2 0 6 0;
#X connect 3 0 2 1;
#X connect 4 0 5 0;
#X connect 5 0 17 0;
#X connect 7 0 10 0;
#X connect 8 0 7 0;
#X connect 9 0 19 0;
#X connect 10 0 9 0;
#X connect 10 0 8 1;
#X connect 11 0 12 0;
#X connect 12 0 13 0;
#X connect 12 1 14 0;
#X connect 13 0 15 0;
#X connect 14 0 18 0;
#X connect 15 0 1 0;
#X connect 16 0 8 0;
#X connect 17 0 9 0;
#X connect 17 1 15 1;
#X connect 18 0 1 0;
#X connect 19 0 11 0;
#X restore 20 253 pd low-pass;
#X obj 732 105 vsl 15 128 0 127 0 0 empty empty empty 0 -9 0 10 -262144
-1 -1 12700 1;
#X floatatom 732 241 10 -12 12 0 - - -;
#X obj 732 50 loadbang;
#X msg 732 76 127;
#X obj 732 266 s lop-cutoff;
#X text 750 154 default: 127;
#X text 750 175 units are MIDI notes;
#N canvas 584 142 728 530 hi-pass 0;
#X obj 312 375 inlet~;
#X obj 365 375 mtof;
#X floatatom 365 400 10 0 0 0 - - -;
#X floatatom 365 80 5 0 0 0 - - -;
#X obj 340 450 outlet~;
#X obj 365 54 r hi-cutoff;
#X obj 340 424 hip~;
#X obj 246 107 + 1;
#X obj 246 81 f;
#X floatatom 246 159 5 0 0 0 - - -;
#X obj 246 133 mod 2;
#X floatatom 246 210 5 0 0 0 - - -;
#X obj 246 235 moses 1;
#X obj 246 261 bng 15 250 50 0 empty empty empty 17 7 0 10 -262144
-1 -1;
#X obj 292 261 bng 15 250 50 0 empty empty empty 17 7 0 10 -262144
-1 -1;
#X obj 303 311 f;
#X obj 246 54 r hip-toggle;
#X obj 365 105 t b f;
#X obj 246 184 == 1;
#X obj 336 311 f 0;
#X connect 0 0 6 0;
#X connect 1 0 2 0;
#X connect 2 0 6 1;
#X connect 3 0 1 0;
#X connect 3 0 17 0;
#X connect 5 0 3 0;
#X connect 6 0 4 0;
#X connect 7 0 10 0;
#X connect 8 0 7 0;
#X connect 9 0 18 0;
#X connect 10 0 9 0;
#X connect 10 0 8 1;
#X connect 11 0 12 0;
#X connect 12 0 13 0;
#X connect 12 1 14 0;
#X connect 13 0 15 0;
#X connect 14 0 19 0;
#X connect 15 0 1 0;
#X connect 16 0 8 0;
#X connect 17 0 9 0;
#X connect 17 1 15 1;
#X connect 18 0 11 0;
#X connect 19 0 1 0;
#X restore 20 279 pd hi-pass;
#X obj 900 105 vsl 15 128 0 127 0 0 empty empty empty 0 -9 0 10 -262144
-1 -1 0 1;
#X floatatom 900 241 10 -12 12 0 - - -;
#X obj 900 50 loadbang;
#X text 918 175 units are MIDI notes;
#X msg 900 76 0;
#X text 918 154 default: 0;
#X obj 900 266 s hi-cutoff;
#X obj 343 322 tgl 15 0 empty empty empty 17 7 0 10 -262144 -1 -1 1
1;
#X obj 343 296 loadbang;
#X obj 343 342 s distortion-toggle;
#X obj 732 322 tgl 15 0 empty empty empty 17 7 0 10 -262144 -1 -1 1
1;
#X obj 732 296 loadbang;
#X obj 900 322 tgl 15 0 empty empty empty 17 7 0 10 -262144 -1 -1 1
1;
#X obj 900 296 loadbang;
#X obj 732 342 s lop-toggle;
#X obj 900 342 s hip-toggle;
#X obj 572 322 tgl 15 0 empty empty empty 17 7 0 10 -262144 -1 -1 1
1;
#X obj 572 296 loadbang;
#X obj 572 342 s pitch-toggle;
#X obj 20 599 *~;
#X obj 20 625 output~;
#X floatatom 38 574 5 0 0 0 - - -;
#X obj 38 383 loadbang;
#X msg 38 409 1;
#X obj 1066 105 vsl 15 128 0 99 0 0 empty empty empty 0 -9 0 10 -262144
-1 -1 0 1;
#X floatatom 1066 241 10 0 99 0 - - -;
#X obj 1066 50 loadbang;
#X msg 1066 76 0;
#X text 1084 154 default: 0;
#X obj 1066 322 tgl 15 0 empty empty empty 17 7 0 10 -262144 -1 -1
1 1;
#X obj 1066 296 loadbang;
#X obj 1066 266 s feedback;
#X obj 1066 342 s reverb-toggle;
#N canvas 62 259 593 509 reverb-feedback 0;
#X obj 243 263 inlet~;
#N canvas 1029 231 658 537 reverb 0;
#X obj 73 19 inlet~;
#X obj 257 208 +~;
#X obj 319 208 +~;
#X obj 117 276 outlet~;
#X obj 187 276 outlet~;
#X obj 258 277 +~;
#X obj 367 278 +~;
#X obj 300 277 -~;
#X obj 407 277 -~;
#X obj 257 334 +~;
#X obj 301 335 +~;
#X obj 345 336 -~;
#X obj 384 336 -~;
#X obj 344 387 *~ 0;
#X obj 302 386 *~ 0;
#X obj 257 385 *~ 0;
#X obj 385 388 *~ 0;
#X obj 452 324 inlet;
#X obj 452 350 / 200;
#X obj 258 487 delwrite~ loop-del1 60;
#X obj 295 138 delread~ loop-del1 60;
#X text 357 17 adapted from G08.reverb.pd;
#X obj 73 43 reverb-abs echo-del1 5;
#X obj 73 67 reverb-abs echo-del2 8;
#X obj 73 91 reverb-abs echo-del3 13;
#X obj 73 115 reverb-abs echo-del4 21;
#X obj 73 139 reverb-abs echo-del5 34;
#X obj 73 163 reverb-abs echo-del6 55;
#X obj 303 464 delwrite~ loop-del2 71;
#X obj 345 441 delwrite~ loop-del3 86;
#X obj 384 418 delwrite~ loop-del4 95;
#X obj 338 163 delread~ loop-del2 71;
#X obj 366 208 delread~ loop-del3 86;
#X obj 426 233 delread~ loop-del4 95;
#X connect 0 0 22 0;
#X connect 1 0 3 0;
#X connect 1 0 5 0;
#X connect 1 0 7 0;
#X connect 2 0 4 0;
#X connect 2 0 5 1;
#X connect 2 0 7 1;
#X connect 5 0 9 0;
#X connect 5 0 11 0;
#X connect 6 0 11 1;
#X connect 6 0 9 1;
#X connect 7 0 10 0;
#X connect 7 0 12 0;
#X connect 8 0 10 1;
#X connect 8 0 12 1;
#X connect 9 0 15 0;
#X connect 10 0 14 0;
#X connect 11 0 13 0;
#X connect 12 0 16 0;
#X connect 13 0 29 0;
#X connect 14 0 28 0;
#X connect 15 0 19 0;
#X connect 16 0 30 0;
#X connect 17 0 18 0;
#X connect 18 0 16 1;
#X connect 18 0 15 1;
#X connect 18 0 14 1;
#X connect 18 0 13 1;
#X connect 20 0 1 1;
#X connect 22 0 23 0;
#X connect 22 1 23 1;
#X connect 23 0 24 0;
#X connect 23 1 24 1;
#X connect 24 0 25 0;
#X connect 24 1 25 1;
#X connect 25 0 26 0;
#X connect 25 1 26 1;
#X connect 26 0 27 0;
#X connect 26 1 27 1;
#X connect 27 0 1 0;
#X connect 27 1 2 0;
#X connect 31 0 2 1;
#X connect 32 0 6 0;
#X connect 32 0 8 0;
#X connect 33 0 6 1;
#X connect 33 0 8 1;
#X restore 262 317 pd reverb;
#X floatatom 322 290 0 0 100 0 - - -;
#X obj 322 263 r feedback;
#X obj 203 403 outlet~;
#X obj 202 375 *~;
#X obj 243 375 *~;
#X obj 122 66 r reverb-toggle;
#X obj 122 129 + 1;
#X obj 122 155 mod 2;
#X floatatom 122 181 5 0 0 0 - - -;
#X obj 122 237 + 1;
#X obj 122 263 mod 2;
#X floatatom 122 289 5 0 0 0 - - -;
#X obj 122 103 f 0;
#X obj 122 211 f 0;
#X connect 0 0 1 0;
#X connect 0 0 6 0;
#X connect 0 0 5 0;
#X connect 1 0 6 0;
#X connect 1 1 6 0;
#X connect 2 0 1 1;
#X connect 3 0 2 0;
#X connect 5 0 4 0;
#X connect 6 0 4 0;
#X connect 7 0 14 0;
#X connect 8 0 9 0;
#X connect 9 0 10 0;
#X connect 9 0 14 1;
#X connect 10 0 15 0;
#X connect 10 0 5 1;
#X connect 11 0 12 0;
#X connect 12 0 13 0;
#X connect 12 0 15 1;
#X connect 13 0 6 1;
#X connect 14 0 8 0;
#X connect 15 0 11 0;
#X restore 20 331 pd reverb-feedback;
#X text 1084 175 higher values = more feedback;
#X obj 38 437 vsl 15 128 1 5 0 0 empty empty empty 0 -9 0 10 -262144
-1 -1 0 1;
#N canvas 889 108 590 611 matching-osc 0;
#X obj 291 109 inlet~;
#X obj 291 159 sigmund~;
#X obj 291 210 moses 1;
#X obj 337 290 mtof;
#X obj 337 316 osc~;
#X obj 337 342 cos~;
#X obj 337 368 *~;
#X obj 381 212 dbtorms;
#X obj 381 263 line~;
#X obj 337 394 *~;
#X floatatom 367 394 5 0 0 0 - - -;
#X msg 381 238 \$1 11;
#X obj 367 368 r osc-amplitude;
#X obj 159 159 + 1;
#X obj 159 185 mod 2;
#X floatatom 159 211 5 0 0 0 - - -;
#X obj 159 327 + 1;
#X obj 159 353 mod 2;
#X floatatom 159 379 5 0 0 0 - - -;
#X obj 159 133 f 0;
#X obj 159 301 f 0;
#X obj 251 469 outlet~;
#X obj 291 432 *~;
#X obj 159 83 r osc-toggle;
#X floatatom 207 369 5 0 0 0 - - -;
#X obj 251 432 *~;
#X obj 207 343 r voice-amplitude;
#X connect 0 0 1 0;
#X connect 0 0 25 0;
#X connect 1 0 2 0;
#X connect 1 1 7 0;
#X connect 2 1 3 0;
#X connect 3 0 4 0;
#X connect 4 0 5 0;
#X connect 5 0 6 0;
#X connect 6 0 9 0;
#X connect 7 0 11 0;
#X connect 8 0 6 1;
#X connect 9 0 22 0;
#X connect 10 0 9 1;
#X connect 11 0 8 0;
#X connect 12 0 10 0;
#X connect 13 0 14 0;
#X connect 14 0 15 0;
#X connect 14 0 19 1;
#X connect 15 0 20 0;
#X connect 16 0 17 0;
#X connect 17 0 18 0;
#X connect 17 0 20 1;
#X connect 18 0 22 1;
#X connect 19 0 13 0;
#X connect 20 0 16 0;
#X connect 22 0 21 0;
#X connect 23 0 19 0;
#X connect 24 0 25 1;
#X connect 25 0 21 0;
#X connect 26 0 24 0;
#X restore 20 357 pd matching-osc;
#X obj 343 567 vsl 15 128 0 8 0 0 empty empty empty 0 -9 0 10 -262144
-1 -1 1587 1;
#X floatatom 343 703 10 0 99 0 - - -;
#X obj 343 512 loadbang;
#X obj 343 784 tgl 15 0 empty empty empty 17 7 0 10 -262144 -1 -1 1
1;
#X obj 343 758 loadbang;
#X obj 343 804 s osc-toggle;
#X obj 343 728 s osc-amplitude;
#X text 361 637 controls amplitude for matching oscillator;
#X text 361 616 default: 1;
#X msg 343 538 1;
#N canvas 892 196 584 511 vibrato 0;
#X obj 164 103 inlet~;
#X obj 197 392 outlet~;
#X obj 176 129 delwrite~ vibrato-buffer 20;
#X obj 197 206 osc~;
#X obj 197 232 +~ 1;
#X obj 197 258 *~;
#X obj 197 285 delread4~ vibrato-buffer;
#X obj 197 155 r vibrato-freq;
#X floatatom 197 181 5 0 0 0 - - -;
#X obj 304 155 r vibrato-depth;
#X floatatom 304 181 5 0 0 0 - - -;
#X obj 99 129 + 1;
#X obj 99 155 mod 2;
#X floatatom 99 181 5 0 0 0 - - -;
#X obj 99 237 + 1;
#X obj 99 263 mod 2;
#X floatatom 99 289 5 0 0 0 - - -;
#X obj 99 103 f 0;
#X obj 99 211 f 0;
#X obj 99 66 r vibrato-toggle;
#X obj 164 341 *~;
#X obj 197 341 *~;
#X connect 0 0 2 0;
#X connect 0 0 20 0;
#X connect 3 0 4 0;
#X connect 4 0 5 0;
#X connect 5 0 6 0;
#X connect 6 0 21 0;
#X connect 7 0 8 0;
#X connect 8 0 3 0;
#X connect 9 0 10 0;
#X connect 10 0 5 1;
#X connect 11 0 12 0;
#X connect 12 0 13 0;
#X connect 12 0 17 1;
#X connect 13 0 18 0;
#X connect 13 0 20 1;
#X connect 14 0 15 0;
#X connect 15 0 16 0;
#X connect 15 0 18 1;
#X connect 16 0 21 1;
#X connect 17 0 11 0;
#X connect 18 0 14 0;
#X connect 19 0 17 0;
#X connect 20 0 1 0;
#X connect 21 0 1 0;
#X restore 20 305 pd vibrato;
#X obj 666 567 vsl 15 128 0.1 10 0 0 empty empty empty 0 -9 0 10 -262144
-1 -1 0 1;
#X floatatom 666 703 10 0 99 0 - - -;
#X obj 666 512 loadbang;
#X obj 666 784 tgl 15 0 empty empty empty 17 7 0 10 -262144 -1 -1 1
1;
#X obj 666 758 loadbang;
#X obj 666 728 s vibrato-freq;
#X msg 666 538 0.1;
#X text 685 616 default: 0.1;
#X text 684 637 controls frequency for vibrato;
#X obj 906 567 vsl 15 128 0 5 0 0 empty empty empty 0 -9 0 10 -262144
-1 -1 0 1;
#X floatatom 906 703 10 0 99 0 - - -;
#X obj 906 512 loadbang;
#X msg 906 538 0;
#X text 925 616 default: 0;
#X text 924 637 controls depth for vibrato;
#X obj 906 728 s vibrato-depth;
#X obj 666 804 s vibrato-toggle;
#X text 79 575 additional amplitude control;
#X text 1064 365 VOLUME WARNING;
#X obj 1123 567 vsl 15 128 0 8 0 0 empty empty empty 0 -9 0 10 -262144
-1 -1 1587 1;
#X floatatom 1123 703 10 0 99 0 - - -;
#X obj 1123 512 loadbang;
#X text 1141 616 default: 1;
#X msg 1123 538 1;
#X text 1141 637 controls amplitude for voice;
#X obj 1123 728 s voice-amplitude;
#X text 18 669 master volume control;
#X text 1366 190 WARNING: All sound effects are turned ON upon loading
the patch \, so be careful when changing the master volume.;
#X text 1366 290 Every sound effect is relatively self-explanatory
\, but I will go ahead and briefly describe the effects here anyways.
;
#X text 1366 339 Distortion affects the clarity of your voice such
that lower numbers will lead to more distortion.;
#X text 1366 389 Pitch shift will shift the pitch of your voice by
half-steps. It can go up one octave and go down one octave.;
#X text 1366 439 Low-pass filter will pass signals with a frequency
lower than its cutoff. The units used are MIDI notes.;
#X text 1366 489 Hi-pass filter will pass signals with a frequency
higher than its cutoff. The units used are MIDI notes.;
#X text 1366 539 Reverb will add an echo effect to your voice. Higher
values will lead to greater feedback (longer echo).;
#X text 1366 589 Matching oscilator will play a tone with the same
pitch as your voice. You can control the amplitude of the tone.;
#X text 1366 639 Vibrato adds a variation in pitch to your voice. You
can control the frequency and depth of the vibrato.;
#X text 1366 240 All effects are modular \, meaning that you can enable
(and disable) any combination for these effects.;
#X text 1366 160 Welcome to the Voice Effects Rig!;
#X connect 0 0 1 0;
#X connect 1 0 5 0;
#X connect 2 0 3 0;
#X connect 3 0 4 0;
#X connect 5 0 17 0;
#X connect 6 0 7 0;
#X connect 7 0 8 0;
#X connect 11 0 16 0;
#X connect 12 0 13 0;
#X connect 13 0 6 0;
#X connect 16 0 2 0;
#X connect 17 0 25 0;
#X connect 18 0 19 0;
#X connect 19 0 22 0;
#X connect 20 0 21 0;
#X connect 21 0 18 0;
#X connect 25 0 73 0;
#X connect 26 0 27 0;
#X connect 27 0 32 0;
#X connect 28 0 30 0;
#X connect 30 0 26 0;
#X connect 33 0 35 0;
#X connect 34 0 33 0;
#X connect 36 0 40 0;
#X connect 37 0 36 0;
#X connect 38 0 41 0;
#X connect 39 0 38 0;
#X connect 42 0 44 0;
#X connect 43 0 42 0;
#X connect 45 0 46 0;
#X connect 45 0 46 1;
#X connect 47 0 45 1;
#X connect 48 0 49 0;
#X connect 49 0 61 0;
#X connect 50 0 51 0;
#X connect 51 0 57 0;
#X connect 52 0 53 0;
#X connect 53 0 50 0;
#X connect 55 0 58 0;
#X connect 56 0 55 0;
#X connect 59 0 62 0;
#X connect 61 0 47 0;
#X connect 62 0 45 0;
#X connect 63 0 64 0;
#X connect 64 0 69 0;
#X connect 65 0 72 0;
#X connect 66 0 68 0;
#X connect 67 0 66 0;
#X connect 72 0 63 0;
#X connect 73 0 59 0;
#X connect 74 0 75 0;
#X connect 75 0 79 0;
#X connect 76 0 80 0;
#X connect 77 0 90 0;
#X connect 78 0 77 0;
#X connect 80 0 74 0;
#X connect 83 0 84 0;
#X connect 84 0 89 0;
#X connect 85 0 86 0;
#X connect 86 0 83 0;
#X connect 93 0 94 0;
#X connect 94 0 99 0;
#X connect 95 0 97 0;
#X connect 97 0 93 0;
